<svg width="150" height="150" viewBox="0 0 150 150" fill="none" xmlns="http://www.w3.org/2000/svg">
<path d="M0 0H150V150H0V0Z" fill="#E5E5E5" fill-opacity="0.13"/>
<path fill-rule="evenodd" clip-rule="evenodd" d="M149 1H1V149H149V1ZM0 0V150H150V0H0Z" fill="white"/>
<path fill-rule="evenodd" clip-rule="evenodd" d="M114 36H36V114H114V36ZM35 35V115H115V35H35Z" fill="white"/>
<path d="M75 72H86V85H75V72Z" fill="#D400B3"/>
<path d="M65 72H85V74H65V72Z" fill="#D400B3"/>
<path d="M74 62H86V74H74V62Z" fill="#D400B3"/>
<path d="M82.1479 23.0002V16.1962H83.2959V23.0002H82.1479ZM82.7359 14.7962C82.5119 14.7962 82.3253 14.7308 82.1759 14.6002C82.0359 14.4602 81.9659 14.2735 81.9659 14.0402C81.9659 13.8162 82.0359 13.6342 82.1759 13.4942C82.3253 13.3542 82.5119 13.2842 82.7359 13.2842C82.9599 13.2842 83.1419 13.3542 83.2819 13.4942C83.4313 13.6342 83.5059 13.8162 83.5059 14.0402C83.5059 14.2735 83.4313 14.4602 83.2819 14.6002C83.1419 14.7308 82.9599 14.7962 82.7359 14.7962Z" fill="white"/>
<path d="M100.226 31.9998L98.3359 25.1958H99.5119L100.52 29.1298C100.595 29.4471 100.665 29.7645 100.73 30.0818C100.795 30.3898 100.861 30.7025 100.926 31.0198H100.982C101.057 30.7025 101.131 30.3898 101.206 30.0818C101.281 29.7645 101.36 29.4471 101.444 29.1298L102.494 25.1958H103.614L104.678 29.1298C104.762 29.4471 104.841 29.7645 104.916 30.0818C105 30.3898 105.079 30.7025 105.154 31.0198H105.21C105.285 30.7025 105.355 30.3898 105.42 30.0818C105.495 29.7645 105.565 29.4471 105.63 29.1298L106.624 25.1958H107.716L105.896 31.9998H104.496L103.516 28.3458C103.432 28.0191 103.353 27.6971 103.278 27.3798C103.213 27.0625 103.138 26.7311 103.054 26.3858H102.998C102.923 26.7311 102.849 27.0671 102.774 27.3938C102.699 27.7111 102.615 28.0331 102.522 28.3598L101.57 31.9998H100.226Z" fill="white"/>
<path d="M121.148 59.9998V53.1958H122.1L122.198 54.4278H122.24C122.473 53.9985 122.758 53.6578 123.094 53.4058C123.43 53.1538 123.789 53.0278 124.172 53.0278C124.443 53.0278 124.685 53.0745 124.9 53.1678L124.676 54.1758C124.564 54.1385 124.461 54.1105 124.368 54.0918C124.275 54.0732 124.158 54.0638 124.018 54.0638C123.729 54.0638 123.425 54.1805 123.108 54.4138C122.8 54.6472 122.529 55.0532 122.296 55.6318V59.9998H121.148Z" fill="white"/>
<path d="M122.226 95.9998L120.336 89.1958H121.512L122.52 93.1298C122.595 93.4471 122.665 93.7645 122.73 94.0818C122.795 94.3898 122.861 94.7025 122.926 95.0198H122.982C123.057 94.7025 123.131 94.3898 123.206 94.0818C123.281 93.7645 123.36 93.4471 123.444 93.1298L124.494 89.1958H125.614L126.678 93.1298C126.762 93.4471 126.841 93.7645 126.916 94.0818C127 94.3898 127.079 94.7025 127.154 95.0198H127.21C127.285 94.7025 127.355 94.3898 127.42 94.0818C127.495 93.7645 127.565 93.4471 127.63 93.1298L128.624 89.1958H129.716L127.896 95.9998H126.496L125.516 92.3458C125.432 92.0191 125.353 91.6971 125.278 91.3798C125.213 91.0625 125.138 90.7311 125.054 90.3858H124.998C124.923 90.7311 124.849 91.0671 124.774 91.3938C124.699 91.7111 124.615 92.0331 124.522 92.3598L123.57 95.9998H122.226Z" fill="white"/>
<path d="M111.148 117V110.196H112.1L112.198 111.428H112.24C112.473 110.998 112.758 110.658 113.094 110.406C113.43 110.154 113.789 110.028 114.172 110.028C114.443 110.028 114.685 110.074 114.9 110.168L114.676 111.176C114.564 111.138 114.461 111.11 114.368 111.092C114.275 111.073 114.158 111.064 114.018 111.064C113.729 111.064 113.425 111.18 113.108 111.414C112.8 111.647 112.529 112.053 112.296 112.632V117H111.148Z" fill="white"/>
<path d="M89.932 128.12L89.372 127.714L90.17 126.398L88.812 125.838L89.022 125.194L90.45 125.544L90.576 124.032H91.262L91.388 125.53L92.83 125.194L93.04 125.838L91.682 126.398L92.466 127.714L91.92 128.12L90.926 126.916L89.932 128.12Z" fill="white"/>
<path d="M62.1479 137V130.196H63.2959V137H62.1479ZM62.7359 128.796C62.5119 128.796 62.3253 128.731 62.1759 128.6C62.0359 128.46 61.9659 128.274 61.9659 128.04C61.9659 127.816 62.0359 127.634 62.1759 127.494C62.3253 127.354 62.5119 127.284 62.7359 127.284C62.9599 127.284 63.1419 127.354 63.2819 127.494C63.4313 127.634 63.5059 127.816 63.5059 128.04C63.5059 128.274 63.4313 128.46 63.2819 128.6C63.1419 128.731 62.9599 128.796 62.7359 128.796Z" fill="white"/>
<path d="M34.2261 127L32.3361 120.196H33.5121L34.5201 124.13C34.5947 124.447 34.6647 124.764 34.7301 125.082C34.7954 125.39 34.8607 125.702 34.9261 126.02H34.9821C35.0567 125.702 35.1314 125.39 35.2061 125.082C35.2807 124.764 35.3601 124.447 35.4441 124.13L36.4941 120.196H37.6141L38.6781 124.13C38.7621 124.447 38.8414 124.764 38.9161 125.082C39.0001 125.39 39.0794 125.702 39.1541 126.02H39.2101C39.2847 125.702 39.3547 125.39 39.4201 125.082C39.4947 124.764 39.5647 124.447 39.6301 124.13L40.6241 120.196H41.7161L39.8961 127H38.4961L37.5161 123.346C37.4321 123.019 37.3527 122.697 37.2781 122.38C37.2127 122.062 37.1381 121.731 37.0541 121.386H36.9981C36.9234 121.731 36.8487 122.067 36.7741 122.394C36.6994 122.711 36.6154 123.033 36.5221 123.36L35.5701 127H34.2261Z" fill="white"/>
<path d="M12.1479 98.9998V92.1958H13.0999L13.1979 93.4278H13.2399C13.4733 92.9985 13.7579 92.6578 14.0939 92.4058C14.4299 92.1538 14.7893 92.0278 15.1719 92.0278C15.4426 92.0278 15.6853 92.0745 15.8999 92.1678L15.6759 93.1758C15.5639 93.1385 15.4613 93.1105 15.3679 93.0918C15.2746 93.0732 15.1579 93.0638 15.0179 93.0638C14.7286 93.0638 14.4253 93.1805 14.1079 93.4138C13.7999 93.6472 13.5293 94.0532 13.2959 94.6318V98.9998H12.1479Z" fill="white"/>
<path d="M12.2261 62.9998L10.3361 56.1958H11.5121L12.5201 60.1298C12.5947 60.4471 12.6647 60.7645 12.7301 61.0818C12.7954 61.3898 12.8607 61.7025 12.9261 62.0198H12.9821C13.0567 61.7025 13.1314 61.3898 13.2061 61.0818C13.2807 60.7645 13.3601 60.4471 13.4441 60.1298L14.4941 56.1958H15.6141L16.6781 60.1298C16.7621 60.4471 16.8414 60.7645 16.9161 61.0818C17.0001 61.3898 17.0794 61.7025 17.1541 62.0198H17.2101C17.2847 61.7025 17.3547 61.3898 17.4201 61.0818C17.4947 60.7645 17.5647 60.4471 17.6301 60.1298L18.6241 56.1958H19.7161L17.8961 62.9998H16.4961L15.5161 59.3458C15.4321 59.0191 15.3527 58.6971 15.2781 58.3798C15.2127 58.0625 15.1381 57.7311 15.0541 57.3858H14.9981C14.9234 57.7311 14.8487 58.0671 14.7741 58.3938C14.6994 58.7111 14.6154 59.0331 14.5221 59.3598L13.5701 62.9998H12.2261Z" fill="white"/>
<path d="M23.1479 42.9998V36.1958H24.0999L24.1979 37.4278H24.2399C24.4733 36.9985 24.7579 36.6578 25.0939 36.4058C25.4299 36.1538 25.7893 36.0278 26.1719 36.0278C26.4426 36.0278 26.6853 36.0745 26.8999 36.1678L26.6759 37.1758C26.5639 37.1385 26.4613 37.1105 26.3679 37.0918C26.2746 37.0732 26.1579 37.0638 26.0179 37.0638C25.7286 37.0638 25.4253 37.1805 25.1079 37.4138C24.7999 37.6472 24.5293 38.0532 24.2959 38.6318V42.9998H23.1479Z" fill="white"/>
<path d="M50.932 20.1202L50.372 19.7142L51.17 18.3982L49.812 17.8382L50.022 17.1942L51.45 17.5442L51.576 16.0322H52.262L52.388 17.5302L53.83 17.1942L54.04 17.8382L52.682 18.3982L53.466 19.7142L52.92 20.1202L51.926 18.9162L50.932 20.1202Z" fill="white"/>
<path d="M90.906 26.1678C90.2994 26.1678 89.7487 26.0278 89.254 25.7478C88.7594 25.4585 88.3674 25.0478 88.078 24.5158C87.7887 23.9838 87.644 23.3492 87.644 22.6118C87.644 21.8652 87.7887 21.2258 88.078 20.6938C88.3767 20.1618 88.7594 19.7512 89.226 19.4618C89.6927 19.1725 90.1827 19.0278 90.696 19.0278C91.564 19.0278 92.2314 19.3172 92.698 19.8958C93.174 20.4745 93.412 21.2492 93.412 22.2198C93.412 22.3412 93.4074 22.4625 93.398 22.5838C93.398 22.6958 93.3887 22.7938 93.37 22.8778H88.778C88.8247 23.5965 89.0487 24.1705 89.45 24.5998C89.8607 25.0292 90.3927 25.2438 91.046 25.2438C91.3727 25.2438 91.6714 25.1972 91.942 25.1038C92.222 25.0012 92.488 24.8705 92.74 24.7118L93.146 25.4678C92.8567 25.6545 92.5254 25.8178 92.152 25.9578C91.788 26.0978 91.3727 26.1678 90.906 26.1678ZM88.764 22.0518H92.404C92.404 21.3612 92.2547 20.8385 91.956 20.4838C91.6667 20.1198 91.256 19.9378 90.724 19.9378C90.248 19.9378 89.8187 20.1245 89.436 20.4978C89.0627 20.8618 88.8387 21.3798 88.764 22.0518Z" fill="white"/>
<path d="M125.29 70.168C124.562 70.168 124.053 69.958 123.764 69.538C123.484 69.118 123.344 68.572 123.344 67.9V64.134H122.336V63.266L123.4 63.196L123.54 61.292H124.506V63.196H126.34V64.134H124.506V67.914C124.506 68.334 124.581 68.6607 124.73 68.894C124.889 69.118 125.164 69.23 125.556 69.23C125.677 69.23 125.808 69.2113 125.948 69.174C126.088 69.1273 126.214 69.0853 126.326 69.048L126.55 69.916C126.363 69.9813 126.158 70.0373 125.934 70.084C125.719 70.14 125.505 70.168 125.29 70.168Z" fill="white"/>
<path d="M104.148 124V114.032H105.282V120.78H105.324L108.222 117.196H109.496L107.214 119.926L109.804 124H108.544L106.556 120.724L105.282 122.208V124H104.148Z" fill="white"/>
<path d="M51.906 134.168C51.2994 134.168 50.7487 134.028 50.254 133.748C49.7594 133.458 49.3674 133.048 49.078 132.516C48.7887 131.984 48.644 131.349 48.644 130.612C48.644 129.865 48.7887 129.226 49.078 128.694C49.3767 128.162 49.7594 127.751 50.226 127.462C50.6927 127.172 51.1827 127.028 51.696 127.028C52.564 127.028 53.2314 127.317 53.698 127.896C54.174 128.474 54.412 129.249 54.412 130.22C54.412 130.341 54.4074 130.462 54.398 130.584C54.398 130.696 54.3887 130.794 54.37 130.878H49.778C49.8247 131.596 50.0487 132.17 50.45 132.6C50.8607 133.029 51.3927 133.244 52.046 133.244C52.3727 133.244 52.6714 133.197 52.942 133.104C53.222 133.001 53.488 132.87 53.74 132.712L54.146 133.468C53.8567 133.654 53.5254 133.818 53.152 133.958C52.788 134.098 52.3727 134.168 51.906 134.168ZM49.764 130.052H53.404C53.404 129.361 53.2547 128.838 52.956 128.484C52.6667 128.12 52.256 127.938 51.724 127.938C51.248 127.938 50.8187 128.124 50.436 128.498C50.0627 128.862 49.8387 129.38 49.764 130.052Z" fill="white"/>
<path d="M12.2901 89.168C11.5621 89.168 11.0534 88.958 10.7641 88.538C10.4841 88.118 10.3441 87.572 10.3441 86.9V83.134H9.33606V82.266L10.4001 82.196L10.5401 80.292H11.5061V82.196H13.3401V83.134H11.5061V86.914C11.5061 87.334 11.5807 87.6607 11.7301 87.894C11.8887 88.118 12.1641 88.23 12.5561 88.23C12.6774 88.23 12.8081 88.2113 12.9481 88.174C13.0881 88.1273 13.2141 88.0853 13.3261 88.048L13.5501 88.916C13.3634 88.9813 13.1581 89.0373 12.9341 89.084C12.7194 89.14 12.5047 89.168 12.2901 89.168Z" fill="white"/>
<path d="M30.1479 36.0002V26.0322H31.2819V32.7802H31.3239L34.2219 29.1962H35.4959L33.2139 31.9262L35.8039 36.0002H34.544L32.5559 32.7242L31.2819 34.2082V36.0002H30.1479Z" fill="white"/>
<path d="M117.716 51.1678C117.147 51.1678 116.671 50.9998 116.288 50.6638C115.915 50.3185 115.728 49.8425 115.728 49.2358C115.728 48.4892 116.059 47.9198 116.722 47.5278C117.394 47.1265 118.453 46.8465 119.9 46.6878C119.9 46.3985 119.858 46.1232 119.774 45.8618C119.699 45.6005 119.559 45.3905 119.354 45.2318C119.158 45.0638 118.873 44.9798 118.5 44.9798C118.108 44.9798 117.739 45.0545 117.394 45.2038C117.049 45.3532 116.741 45.5212 116.47 45.7078L116.022 44.9098C116.339 44.7045 116.727 44.5085 117.184 44.3218C117.651 44.1258 118.155 44.0278 118.696 44.0278C119.527 44.0278 120.129 44.2845 120.502 44.7978C120.875 45.3018 121.062 45.9785 121.062 46.8278V50.9998H120.11L120.012 50.1878H119.97C119.653 50.4492 119.303 50.6778 118.92 50.8738C118.547 51.0698 118.145 51.1678 117.716 51.1678ZM118.052 50.2438C118.379 50.2438 118.687 50.1645 118.976 50.0058C119.265 49.8472 119.573 49.6232 119.9 49.3338V47.4438C118.771 47.5838 117.977 47.7938 117.52 48.0738C117.072 48.3538 116.848 48.7132 116.848 49.1518C116.848 49.5345 116.965 49.8145 117.198 49.9918C117.431 50.1598 117.716 50.2438 118.052 50.2438Z" fill="white"/>
<path d="M73.94 138L71 128.816H72.246L73.716 133.772C73.884 134.313 74.0287 134.822 74.15 135.298C74.2807 135.765 74.4347 136.269 74.612 136.81H74.668C74.836 136.269 74.9853 135.765 75.116 135.298C75.2467 134.822 75.3913 134.313 75.55 133.772L77.02 128.816H78.21L75.298 138H73.94Z" fill="white"/>
<path d="M18.794 51.1678C18.2434 51.1678 17.7254 51.0278 17.24 50.7478C16.764 50.4678 16.3767 50.0618 16.078 49.5298C15.7887 48.9978 15.644 48.3585 15.644 47.6118C15.644 46.8465 15.7887 46.1978 16.078 45.6658C16.3767 45.1338 16.764 44.7278 17.24 44.4478C17.7254 44.1678 18.2434 44.0278 18.794 44.0278C19.354 44.0278 19.872 44.1678 20.348 44.4478C20.824 44.7278 21.2067 45.1338 21.496 45.6658C21.7947 46.1978 21.944 46.8465 21.944 47.6118C21.944 48.3585 21.7947 48.9978 21.496 49.5298C21.2067 50.0618 20.824 50.4678 20.348 50.7478C19.872 51.0278 19.354 51.1678 18.794 51.1678ZM18.794 50.2158C19.382 50.2158 19.8534 49.9778 20.208 49.5018C20.572 49.0165 20.754 48.3865 20.754 47.6118C20.754 46.8278 20.572 46.1932 20.208 45.7078C19.8534 45.2225 19.382 44.9798 18.794 44.9798C18.2154 44.9798 17.744 45.2225 17.38 45.7078C17.016 46.1932 16.834 46.8278 16.834 47.6118C16.834 48.3865 17.016 49.0165 17.38 49.5018C17.744 49.9778 18.2154 50.2158 18.794 50.2158Z" fill="white"/>
<path d="M118.794 109.168C118.243 109.168 117.725 109.028 117.24 108.748C116.764 108.468 116.377 108.062 116.078 107.53C115.789 106.998 115.644 106.358 115.644 105.612C115.644 104.846 115.789 104.198 116.078 103.666C116.377 103.134 116.764 102.728 117.24 102.448C117.725 102.168 118.243 102.028 118.794 102.028C119.354 102.028 119.872 102.168 120.348 102.448C120.824 102.728 121.207 103.134 121.496 103.666C121.795 104.198 121.944 104.846 121.944 105.612C121.944 106.358 121.795 106.998 121.496 107.53C121.207 108.062 120.824 108.468 120.348 108.748C119.872 109.028 119.354 109.168 118.794 109.168ZM118.794 108.216C119.382 108.216 119.853 107.978 120.208 107.502C120.572 107.016 120.754 106.386 120.754 105.612C120.754 104.828 120.572 104.193 120.208 103.708C119.853 103.222 119.382 102.98 118.794 102.98C118.215 102.98 117.744 103.222 117.38 103.708C117.016 104.193 116.834 104.828 116.834 105.612C116.834 106.386 117.016 107.016 117.38 107.502C117.744 107.978 118.215 108.216 118.794 108.216Z" fill="white"/>
<path d="M73.94 22.9999L71 13.8159H72.246L73.716 18.7719C73.884 19.3133 74.0287 19.8219 74.15 20.2979C74.2807 20.7646 74.4347 21.2686 74.612 21.8099H74.668C74.836 21.2686 74.9853 20.7646 75.116 20.2979C75.2467 19.8219 75.3913 19.3133 75.55 18.7719L77.02 13.8159H78.21L75.298 22.9999H73.94Z" fill="white"/>
<path d="M17.716 108.168C17.1467 108.168 16.6707 108 16.288 107.664C15.9147 107.318 15.728 106.842 15.728 106.236C15.728 105.489 16.0594 104.92 16.722 104.528C17.394 104.126 18.4534 103.846 19.9 103.688C19.9 103.398 19.858 103.123 19.774 102.862C19.6994 102.6 19.5594 102.39 19.354 102.232C19.158 102.064 18.8734 101.98 18.5 101.98C18.108 101.98 17.7394 102.054 17.394 102.204C17.0487 102.353 16.7407 102.521 16.47 102.708L16.022 101.91C16.3394 101.704 16.7267 101.508 17.184 101.322C17.6507 101.126 18.1547 101.028 18.696 101.028C19.5267 101.028 20.1287 101.284 20.502 101.798C20.8754 102.302 21.062 102.978 21.062 103.828V108H20.11L20.012 107.188H19.97C19.6527 107.449 19.3027 107.678 18.92 107.874C18.5467 108.07 18.1454 108.168 17.716 108.168ZM18.052 107.244C18.3787 107.244 18.6867 107.164 18.976 107.006C19.2654 106.847 19.5734 106.623 19.9 106.334V104.444C18.7707 104.584 17.9774 104.794 17.52 105.074C17.072 105.354 16.848 105.713 16.848 106.152C16.848 106.534 16.9647 106.814 17.198 106.992C17.4314 107.16 17.716 107.244 18.052 107.244Z" fill="white"/>
</svg>
